<svg height="20px" width="20px" xmlns="http://www.w3.org/2000/svg" xmlns:xlink="http://www.w3.org/1999/xlink" viewBox="0 0 66 81" fill="white" fill-rule="evenodd"><use xlink:href="#A" x=".5" y=".5"/><symbol id="A" overflow="visible"><path d="M64.5 76.862L41.948 39.978c-.992-1.57-2.583-1.57-3.55 0L15.843 76.862c-.992 1.57-.207 2.73 1.776 2.73h45.107c1.983.205 2.767-1.16 1.776-2.73zm-11.07-.773h-9.9v-5.844h3.966v-3.9h-13.86v3.9h3.966v5.844H27.72v-5.844h3.966V64.4h7.887v-3.9h-3.966v-5.844H45.5V60.5h-3.966v3.9h7.9v5.844H53.4v5.844zM35.63 0H3.966C1.8 0 0 1.75 0 3.9V80h11.07c0-.773.208-1.75.784-2.547l3.16-5.276h-9.1v-3.9h11.484l2.375-3.9H5.904v-3.9H22.14L36.182 37.43c.784-1.364 1.983-2.138 3.367-2.342V3.707C39.572 1.75 37.797 0 35.63 0zm-1.983 15.6H5.95v-3.9h27.696v3.9z" fill="#2a3282"/></symbol></svg>