<svg height="20px" width="20px" viewBox="0 0 256 256"  xmlns="http://www.w3.org/2000/svg"><path d="m144.324 66.5a2.5 2.5 0 0 1 -1.454-.466l-14.87-10.628-14.87 10.628a2.5 2.5 0 0 1 -3.954-2.034v-23.333a2.5 2.5 0 0 1 2.5-2.5h32.648a2.5 2.5 0 0 1 2.5 2.5v23.333a2.5 2.5 0 0 1 -2.5 2.5zm-16.324-16.667a2.5 2.5 0 0 1 1.454.466l12.37 8.842v-15.974h-27.648v15.974l12.37-8.842a2.5 2.5 0 0 1 1.454-.466z" fill="#ebe7f2"/><path d="m215.333 38.167h-174.666a2.5 2.5 0 0 0 -2.5 2.5v174.666a2.5 2.5 0 0 0 2.5 2.5h174.666a2.5 2.5 0 0 0 2.5-2.5v-174.666a2.5 2.5 0 0 0 -2.5-2.5zm-2.5 174.666h-169.666v-169.666h169.666z" fill="#846f75"/><g fill="#a58bc9"><path d="m97.823 89.292h-18.69a12.526 12.526 0 0 0 -12.512 12.513v18.852a2.5 2.5 0 0 0 2.5 2.5h38.714a2.5 2.5 0 0 0 2.5-2.5v-18.852a12.526 12.526 0 0 0 -12.512-12.513zm7.512 28.865h-4.846v-10.018a2.5 2.5 0 1 0 -5 0v10.018h-14.023v-10.018a2.5 2.5 0 0 0 -5 0v10.018h-4.845v-16.352a7.522 7.522 0 0 1 7.512-7.513h18.69a7.522 7.522 0 0 1 7.512 7.513z"/><path d="m88.478 87.362a14.515 14.515 0 1 0 -14.515-14.515 14.532 14.532 0 0 0 14.515 14.515zm0-24.03a9.515 9.515 0 1 1 -9.515 9.515 9.526 9.526 0 0 1 9.515-9.515z"/><path d="m176.867 89.292h-18.69a12.526 12.526 0 0 0 -12.512 12.513v18.852a2.5 2.5 0 0 0 2.5 2.5h38.714a2.5 2.5 0 0 0 2.5-2.5v-18.852a12.526 12.526 0 0 0 -12.512-12.513zm7.512 28.865h-4.845v-10.018a2.5 2.5 0 0 0 -5 0v10.018h-14.023v-10.018a2.5 2.5 0 1 0 -5 0v10.018h-4.846v-16.352a7.522 7.522 0 0 1 7.512-7.513h18.69a7.522 7.522 0 0 1 7.512 7.513z"/><path d="m167.522 87.362a14.515 14.515 0 1 0 -14.515-14.515 14.532 14.532 0 0 0 14.515 14.515zm0-24.03a9.515 9.515 0 1 1 -9.515 9.515 9.526 9.526 0 0 1 9.515-9.515z"/><path d="m97.823 165.3h-18.69a12.526 12.526 0 0 0 -12.512 12.512v18.853a2.5 2.5 0 0 0 2.5 2.5h38.714a2.5 2.5 0 0 0 2.5-2.5v-18.851a12.526 12.526 0 0 0 -12.512-12.514zm7.512 28.865h-4.846v-10.016a2.5 2.5 0 0 0 -5 0v10.018h-14.023v-10.018a2.5 2.5 0 0 0 -5 0v10.018h-4.845v-16.353a7.521 7.521 0 0 1 7.512-7.512h18.69a7.521 7.521 0 0 1 7.512 7.512z"/><path d="m88.478 163.372a14.515 14.515 0 1 0 -14.515-14.515 14.532 14.532 0 0 0 14.515 14.515zm0-24.03a9.515 9.515 0 1 1 -9.515 9.515 9.525 9.525 0 0 1 9.515-9.515z"/><path d="m176.867 165.3h-18.69a12.526 12.526 0 0 0 -12.512 12.512v18.853a2.5 2.5 0 0 0 2.5 2.5h38.714a2.5 2.5 0 0 0 2.5-2.5v-18.851a12.526 12.526 0 0 0 -12.512-12.514zm7.512 28.865h-4.845v-10.016a2.5 2.5 0 0 0 -5 0v10.018h-14.023v-10.018a2.5 2.5 0 0 0 -5 0v10.018h-4.846v-16.353a7.521 7.521 0 0 1 7.512-7.512h18.69a7.521 7.521 0 0 1 7.512 7.512z"/><path d="m167.522 163.372a14.515 14.515 0 1 0 -14.515-14.515 14.532 14.532 0 0 0 14.515 14.515zm0-24.03a9.515 9.515 0 1 1 -9.515 9.515 9.525 9.525 0 0 1 9.515-9.515z"/></g></svg>