<?xml version="1.0" encoding="iso-8859-1"?>
<!-- Generator: Adobe Illustrator 19.0.0, SVG Export Plug-In . SVG Version: 6.00 Build 0)  -->
<svg width="20px" height="20px" version="1.1" id="Capa_1" xmlns="http://www.w3.org/2000/svg" xmlns:xlink="http://www.w3.org/1999/xlink" x="0px" y="0px"
	 viewBox="0 0 460.37 460.37" style="enable-background:new 0 0 460.37 460.37;" xml:space="preserve">
<path style="fill:#083863;" d="M430.212,193.609C419.979,85.905,330.913,2.814,222.759,0.074C221.003,0.024,219.186,0,217.186,0
	s-3.827,0.024-5.554,0.073C93.488,3.135,0.195,101.392,3.257,219.537c1.323,51.044,20.854,99.932,55.067,137.836
	c39.235,43.568,94.666,69.076,153.279,70.534c1.756,0.05,3.582,0.074,5.583,0.074c5.523,0,10-4.477,10-10V224.1h66v-20h-66v-50.429
	c29.267-1.333,57.946-8.675,84.252-21.571c6.676,21.296,10.617,43.355,11.726,65.645c0.055,0.933,0.102,1.867,0.14,2.8l19.985-0.8
	c-0.043-1.065-0.1-2.13-0.158-3.143c-1.257-25.299-5.924-50.312-13.875-74.362c13.975-8.661,26.892-18.923,38.489-30.577
	c24.216,29.593,39.035,65.747,42.555,103.823c0.52,5.499,5.398,9.535,10.897,9.015c5.499-0.52,9.535-5.398,9.015-10.897V193.609z
	 M134.913,38.25c10.836-5.085,22.123-9.148,33.715-12.134c-23.893,19.993-42.983,46.151-56.385,77.455
	C100.4,96.051,89.427,87.24,79.527,77.3C95.543,61.121,114.294,47.901,134.913,38.25z M66.168,92.28
	c11.705,11.633,24.741,21.846,38.838,30.427c-8.657,26.294-13.398,53.719-14.07,81.393H23.451
	C25.505,163.247,40.461,124.097,66.168,92.28z M23.451,224.1h67.485c0.672,27.656,5.413,55.062,14.07,81.336
	c-14.095,8.566-27.131,18.765-38.837,30.386C40.463,304.042,25.506,264.923,23.451,224.1L23.451,224.1z M134.913,389.73
	c-20.619-9.651-39.369-22.871-55.386-39.049c9.901-9.938,20.874-18.748,32.717-26.266c13.411,31.307,32.5,57.462,56.38,77.449
	C157.034,398.877,145.748,394.814,134.913,389.73z M207.186,404.208c-34.248-19.079-60.78-49.8-77.408-89.669
	c24.141-11.982,50.491-18.862,77.408-20.211V404.208z M207.186,274.308c-29.268,1.352-57.958,8.632-84.329,21.4
	c-7.22-23.214-11.228-47.307-11.913-71.608h96.242V274.308z M207.186,204.1h-96.242c0.685-24.335,4.694-48.461,11.914-71.71
	c26.38,12.727,55.068,19.967,84.328,21.283V204.1z M207.186,133.653c-26.916-1.349-53.266-8.225-77.409-20.2
	c16.609-39.868,43.144-70.587,77.409-89.679V133.653z M227.186,133.653V23.778c34.181,19.045,60.682,49.68,77.32,89.426
	c-24.066,12.132-50.403,19.096-77.32,20.446V133.653z M321.973,103.186c-13.406-31.132-32.441-57.156-56.229-77.063
	c33.528,8.666,64.118,26.166,88.581,50.677c-9.79,9.947-20.639,18.794-32.352,26.383V103.186z"/>
<g>
	<path style="fill:#D4E1F4;" d="M358.566,309.11l-20,1v-34.72h20V309.11z"/>
	<path style="fill:#D4E1F4;" d="M348.566,437.25c-5.523,0-10-4.477-10-10V376.3c0-5.523,4.477-10,10-10s10,4.477,10,10v50.95
		C358.566,432.773,354.089,437.25,348.566,437.25z"/>
	<path style="fill:#D4E1F4;" d="M440.796,448.69h-80.27c-5.523,0-10-4.477-10-10s4.477-10,10-10h80.27c5.523,0,10,4.477,10,10
		S446.319,448.69,440.796,448.69z"/>
	<path style="fill:#D4E1F4;" d="M336.986,448.69h-81.31c-5.522,0,0-4.477,0-10s-5.522-10,0-10h81.31c5.523,0,10,4.477,10,10
		S342.509,448.69,336.986,448.69z"/>
</g>
<g>
	<path style="fill:#00ACEA;" d="M455.896,334.36v24.63c-0.001,14.78-11.982,26.761-26.762,26.76c-0.003,0-0.005,0-0.008,0h-161.12
		c-14.779,0.001-26.759-11.979-26.76-26.758c0-0.001,0-0.001,0-0.002v-24.63c-0.002-14.781,11.979-26.766,26.76-26.77h161.12
		C443.911,307.59,455.896,319.575,455.896,334.36z"/>
	<path style="fill:#00ACEA;" d="M333.146,197.15h95.98c14.785,0,26.77,11.985,26.77,26.77v24.63
		c-0.001,14.78-11.982,26.761-26.762,26.76c-0.003,0-0.005,0-0.008,0h-161.12c-14.779,0.001-26.759-11.979-26.76-26.758
		c0-0.001,0-0.001,0-0.002v-24.63c-0.008-3.37,0.63-6.71,1.88-9.84c4.029-10.217,13.897-16.932,24.88-16.93L333.146,197.15z"/>
</g>
<g>
	<circle style="fill:#00EFD1;" cx="444.326" cy="438.69" r="12.86"/>
	<path style="fill:#00EFD1;" d="M363.746,423.5c8.455,8.384,8.514,22.035,0.13,30.49c-8.384,8.455-22.035,8.514-30.49,0.13
		c-8.456-8.384-8.514-22.035-0.13-30.49c4.048-4.083,9.56-6.38,15.31-6.38C354.256,417.233,359.718,419.482,363.746,423.5z"/>
	<circle style="fill:#00EFD1;" cx="252.816" cy="438.69" r="12.86"/>
	<path style="fill:#00EFD1;" d="M379.206,256.43c-5.523,0-10-4.477-10-10v-20.39c0-5.523,4.477-10,10-10s10,4.477,10,10v20.39
		C389.206,251.953,384.729,256.43,379.206,256.43z"/>
	<path style="fill:#00EFD1;" d="M422.306,256.43c-5.523,0-10-4.477-10-10v-20.39c0-5.523,4.477-10,10-10s10,4.477,10,10v20.39
		C432.306,251.953,427.829,256.43,422.306,256.43z"/>
	<path style="fill:#00EFD1;" d="M379.206,366.87c-5.523,0-10-4.477-10-10v-20.39c0-5.523,4.477-10,10-10s10,4.477,10,10v20.39
		C389.206,362.393,384.729,366.87,379.206,366.87L379.206,366.87z"/>
	<path style="fill:#00EFD1;" d="M422.306,366.87c-5.523,0-10-4.477-10-10v-20.39c0-5.523,4.477-10,10-10s10,4.477,10,10v20.39
		C432.306,362.393,427.829,366.87,422.306,366.87L422.306,366.87z"/>
	<path style="fill:#00EFD1;" d="M282.016,221.22c8.29-0.006,15.014,6.71,15.02,15s-6.71,15.014-15,15.02s-15.014-6.71-15.02-15
		c0-0.003,0-0.007,0-0.01C267.069,227.966,273.752,221.278,282.016,221.22L282.016,221.22z"/>
	<path style="fill:#00EFD1;" d="M282.016,331.66c8.29-0.006,15.014,6.71,15.02,15s-6.71,15.014-15,15.02s-15.014-6.71-15.02-15
		c0-0.003,0-0.007,0-0.01C267.069,338.406,273.752,331.718,282.016,331.66z"/>
</g>
<g>
</g>
<g>
</g>
<g>
</g>
<g>
</g>
<g>
</g>
<g>
</g>
<g>
</g>
<g>
</g>
<g>
</g>
<g>
</g>
<g>
</g>
<g>
</g>
<g>
</g>
<g>
</g>
<g>
</g>
</svg>
